Coordinates
version=1
nRows=4
nColumns=63
inDegrees=yes

Units are S.I. units (second, meters, Newtons, ...)
If the header above contains a line with 'inDegrees', this indicates whether rotational values are in degrees (yes) or radians (no).

endheader
time	pelvis_tilt	pelvis_list	pelvis_rotation	pelvis_tx	pelvis_ty	pelvis_tz	hip_flexion_r	hip_adduction_r	hip_rotation_r	knee_angle_r	knee_angle_r_beta	ankle_angle_r	subtalar_angle_r	mtp_angle_r	hip_flexion_l	hip_adduction_l	hip_rotation_l	knee_angle_l	knee_angle_l_beta	ankle_angle_l	subtalar_angle_l	mtp_angle_l	L5_S1_Flex_Ext	L5_S1_Lat_Bending	L5_S1_axial_rotation	L4_L5_Flex_Ext	L4_L5_Lat_Bending	L4_L5_axial_rotation	L3_L4_Flex_Ext	L3_L4_Lat_Bending	L3_L4_axial_rotation	L2_L3_Flex_Ext	L2_L3_Lat_Bending	L2_L3_axial_rotation	L1_L2_Flex_Ext	L1_L2_Lat_Bending	L1_L2_axial_rotation	L1_T12_Flex_Ext	L1_T12_Lat_Bending	L1_T12_axial_rotation	Abs_r3	Abs_r2	Abs_r1	Abs_t1	Abs_t2	neck_flexion	neck_bending	neck_rotation	arm_flex_r	arm_add_r	arm_rot_r	elbow_flex_r	pro_sup_r	wrist_flex_r	wrist_dev_r	arm_flex_l	arm_add_l	arm_rot_l	elbow_flex_l	pro_sup_l	wrist_flex_l	wrist_dev_l
      2.33898305	      6.40791253	     15.28038004	     85.04691296	      0.14778012	      0.54728384	      1.15185604	     -8.97044498	      2.73576660	     -8.69009386	     15.31465141	      0.26729109	     28.62288898	     13.13566688	      0.00000000	    -10.98545947	     -3.88017029	     -7.61131827	     11.97098857	      0.20893317	     31.81860579	      2.08637656	      0.00000000	     -1.62744962	      1.77753941	     10.74403636	     -3.02233669	      2.36412742	     11.41553864	     -2.67373698	      4.32190933	     11.41553864	     -1.86001217	      4.32190933	      9.40103182	     -1.51124972	      3.62475837	      8.72952955	     -0.92992471	      2.75340855	      8.05802727	    -11.62470989	     20.10788135	     59.75510704	      0.00000000	      0.00000000	      2.15225799	      4.73344050	    -44.67389694	    -32.79078383	    -16.27311021	    -40.28560040	    149.84852530	     77.75687710	     56.97263479	     -2.33949625	     48.73062020	     50.70745632	    198.82693160	      0.03550289	      0.51760040	    -69.94792131	    -24.76654589
      2.35593220	      6.62790740	     15.37999724	     85.04066621	      0.14667469	      0.54743778	      1.15194276	     -9.05505185	      2.87768346	     -8.74730387	     15.39636090	      0.26871719	     28.55793380	     13.20329785	      0.00000000	    -10.96312096	     -4.06356039	     -7.59810508	     12.29963682	      0.21466916	     31.81972313	      2.01941482	      0.00000000	     -1.62845250	      1.80028519	     10.66886569	     -3.02419913	      2.39437930	     11.33566980	     -2.67538461	      4.37721341	     11.33566980	     -1.86115836	      4.37721341	      9.33525748	     -1.51218099	      3.67114156	      8.66845337	     -0.93049776	      2.78864176	      8.00164927	    -11.63187334	     20.36518611	     59.33703031	      0.00000000	      0.00000000	      2.04108311	      4.76945495	    -44.66475918	    -33.29323786	    -16.21835893	    -40.47663796	    149.85353689	     77.66702136	     57.11252169	     -2.96530686	     48.45173713	     50.70741573	    199.86055553	      0.03524939	      0.53051522	    -69.94800855	    -24.77132006
      2.37288136	      6.84912414	     15.50038191	     85.09663832	      0.14544984	      0.54754761	      1.15201381	     -9.14726410	      3.02502714	     -8.86832319	     15.50472237	      0.27060845	     28.50900108	     13.23511053	      0.00000000	    -10.95404727	     -4.25214550	     -7.51137263	     12.58662410	      0.21967803	     31.84560845	      1.94779809	      0.00000000	     -1.63621467	      1.82055769	     10.57911983	     -3.03861426	      2.42134173	     11.24031482	     -2.68813708	      4.42650396	     11.24031482	     -1.87002974	      4.42650396	      9.25672985	     -1.51938894	      3.71248124	      8.59553486	     -0.93493306	      2.82004386	      7.93433988	    -11.68731774	     20.59451268	     58.83789078	      0.00000000	      0.00000000	      2.12968437	      4.89122235	    -44.65351736	    -33.62016432	    -16.20183584	    -41.06196616	    149.85466010	     77.76219797	     56.75908274	     -3.61536063	     48.21291238	     50.76791839	    200.85454911	      0.03509434	      0.53594237	    -69.94801594	    -24.77377469
      2.38983051	      7.04693915	     15.60693854	     85.22535681	      0.14432504	      0.54755525	      1.15206479	     -9.23354610	      3.17596097	     -9.03427250	     15.59137633	      0.27212085	     28.49682649	     13.25033650	      0.00000000	    -10.89754162	     -4.44268788	     -7.31919854	     12.86392137	      0.22451778	     31.85687119	      1.81987715	      0.00000000	     -1.64316029	      1.83656275	     10.48636908	     -3.05151298	      2.44262846	     11.14176714	     -2.69954804	      4.46541868	     11.14176714	     -1.87796790	      4.46541868	      9.17557294	     -1.52583865	      3.74511877	      8.52017487	     -0.93890179	      2.84483570	      7.86477681	    -11.73692964	     20.77556517	     58.32203889	      0.00000000	      0.00000000	      2.29740280	      5.07407184	    -44.64218974	    -33.83672569	    -16.22128658	    -41.67507869	    149.85110146	     78.15325328	     55.74513462	     -4.36851879	     48.08162233	     50.88119625	    201.58953911	      0.03490930	      0.53668509	    -69.94813832	    -24.77533441
